# xmcd CD database file
#
# Track frame offsets:
#	187
#	22257
#	37530
#
# Disc length: 794 seconds
#
# Revision: 3
# Processed by: cddbd v1.5.1PL0 Copyright (c) Steve Scherf et al.
# Submitted via: CDex 1.51
#
DISCID=18031803
DTITLE=内田 有紀 - Baby's Growing Up
DYEAR=1995
DGENRE=JPop
TTITLE0=Baby's Growing Up
TTITLE1=19 Nineteen
TTITLE2=Baby's Growing Up (Original Karaoke)
EXTD=YEAR: 1995
EXTT0=
EXTT1=
EXTT2=
PLAYORDER=
